<svg xmlns="http://www.w3.org/2000/svg" viewBox="0 0 420 100" fill="none">
  <!-- "emaratech" wordmark -->
  <text x="0" y="72" font-family="-apple-system,BlinkMacSystemFont,'Segoe UI',Helvetica,Arial,sans-serif" font-size="72" font-weight="400" letter-spacing="-1" fill="#0d2f35">emaratech</text>
  <!-- Star cluster icon (4-pointed stars) -->
  <!-- Large star top-right -->
  <g transform="translate(352,8)">
    <path d="M18 0 C18 10 26 18 36 18 C26 18 18 26 18 36 C18 26 10 18 0 18 C10 18 18 10 18 0Z" fill="#2dd4bf"/>
  </g>
  <!-- Medium star top-far-right -->
  <g transform="translate(388,4)">
    <path d="M11 0 C11 6 16 11 22 11 C16 11 11 16 11 22 C11 16 6 11 0 11 C6 11 11 6 11 0Z" fill="#2dd4bf"/>
  </g>
  <!-- Medium star mid-right -->
  <g transform="translate(392,30)">
    <path d="M11 0 C11 6 16 11 22 11 C16 11 11 16 11 22 C11 16 6 11 0 11 C6 11 11 6 11 0Z" fill="#2dd4bf"/>
  </g>
  <!-- Large star bottom-left of cluster -->
  <g transform="translate(348,44)">
    <path d="M18 0 C18 10 26 18 36 18 C26 18 18 26 18 36 C18 26 10 18 0 18 C10 18 18 10 18 0Z" fill="#2dd4bf"/>
  </g>
  <!-- Medium star bottom-right of cluster -->
  <g transform="translate(388,56)">
    <path d="M11 0 C11 6 16 11 22 11 C16 11 11 16 11 22 C11 16 6 11 0 11 C6 11 11 6 11 0Z" fill="#2dd4bf"/>
  </g>
</svg>
