<svg xmlns="http://www.w3.org/2000/svg" viewBox="0 0 64 64" fill="none">
  <rect width="64" height="64" rx="12" fill="#0c2461"/>
  <!-- Large star top-left -->
  <path d="M20 6 C20 14 28 20 36 20 C28 20 20 28 20 36 C20 28 12 20 4 20 C12 20 20 14 20 6Z" fill="#2dd4bf"/>
  <!-- Small star top-right -->
  <path d="M46 4 C46 9 50 13 55 13 C50 13 46 17 46 22 C46 17 42 13 37 13 C42 13 46 9 46 4Z" fill="#2dd4bf"/>
  <!-- Small star mid-right -->
  <path d="M50 30 C50 34 53 37 57 37 C53 37 50 40 50 44 C50 40 47 37 43 37 C47 37 50 34 50 30Z" fill="#2dd4bf"/>
  <!-- Large star bottom -->
  <path d="M22 38 C22 46 30 52 38 52 C30 52 22 60 22 68 C22 60 14 52 6 52 C14 52 22 46 22 38Z" fill="#2dd4bf" opacity="0.85"/>
  <!-- Small star bottom-right -->
  <path d="M46 46 C46 50 49 53 53 53 C49 53 46 56 46 60 C46 56 43 53 39 53 C43 53 46 50 46 46Z" fill="#2dd4bf"/>
</svg>
